<svg height="800px" width="800px" version="1.1" viewBox="0 0 512 512">
	<g id="g68">
		<path fill="currentColor" d="M 474.422,314.534 C 479.749,294.626 512,277.591 512,256 c 0,-21.591 -32.251,-38.626 -37.578,-58.534 -5.51,-20.599 13.748,-51.47 3.326,-69.497 C 467.142,109.672 430.708,110.998 415.855,96.145 401.003,81.325 402.321,44.85 384.032,34.253 366.004,23.83 335.133,43.088 314.535,37.578 294.658,32.276 277.591,0 256,0 234.44,0 217.374,32.276 197.465,37.578 176.897,43.088 146.027,23.83 127.968,34.253 109.703,44.85 110.997,81.325 96.169,96.145 81.325,110.997 44.85,109.671 34.284,127.969 23.83,145.996 43.119,176.867 37.602,197.466 32.277,217.374 0,234.409 0,256 c 0,21.592 32.277,38.626 37.602,58.535 5.517,20.599 -13.772,51.47 -3.318,69.497 10.566,18.289 47.04,16.971 61.885,31.824 6.834,6.826 10.216,18.21 13.685,29.521 2.937,9.644 5.93,19.257 11.081,25.989 1.976,2.611 4.278,4.794 7.033,6.382 18.028,10.422 48.93,-8.835 69.497,-3.326 12.724,3.382 24.282,17.758 36.586,27.728 6.947,5.626 14.162,9.85 21.949,9.85 7.787,0 15.003,-4.224 21.98,-9.851 12.066,-9.764 23.409,-23.774 35.808,-27.49 0.238,-0.087 0.508,-0.175 0.746,-0.238 20.598,-5.509 51.47,13.748 69.497,3.326 2.754,-1.587 5.088,-3.802 7.064,-6.406 11.2,-14.701 12.153,-42.913 24.759,-55.486 14.852,-14.852 51.287,-13.534 61.893,-31.824 10.423,-18.027 -8.835,-48.897 -3.325,-69.497 z M 462.65,291.38 c 0.611,-6.39 0.952,-12.867 0.952,-19.416 0,-111.346 -90.27,-201.601 -201.6,-201.601 -111.346,0 -201.609,90.256 -201.609,201.601 0,57.892 24.442,110.044 63.52,146.821 -3.691,-3.008 -7.311,-6.104 -10.788,-9.351 C 71.998,371.14 46.319,316.583 46.319,256 c 0,-115.807 93.874,-209.682 209.682,-209.682 115.799,0 209.682,93.875 209.682,209.682 -10e-4,12.066 -1.08,23.877 -3.033,35.38 z" id="path66" />
	</g>
</svg>
